<svg width="187" height="29" viewBox="0 0 187 29" fill="none" xmlns="http://www.w3.org/2000/svg">
<path d="M23.1518 3.40778C21.9925 2.24843 20.5521 1.40527 18.7955 0.843162C17.0389 0.281054 14.9661 0 12.542 0H0V28H12.542C14.931 28 17.0389 27.7189 18.7955 27.1568C20.5521 26.5947 21.9925 25.7516 23.1518 24.5922C24.3112 23.4329 25.1543 21.9925 25.7164 20.2359C26.2785 18.4793 26.5596 16.4065 26.5596 13.9824C26.5596 11.5583 26.2785 9.48557 25.7164 7.72898C25.1543 5.97239 24.3112 4.53199 23.1518 3.40778ZM18.9009 17.8821C18.6198 18.936 18.1631 19.7792 17.5307 20.4115C16.8984 21.0439 16.0552 21.5006 15.0013 21.7817C13.9473 22.0627 12.6826 22.2033 11.1368 22.2033H6.92095V5.83187H11.1368C12.6826 5.83187 13.9473 5.97239 15.0013 6.25345C16.0552 6.5345 16.8984 6.99122 17.5307 7.62359C18.1631 8.25596 18.6198 9.09912 18.9009 10.1531C19.1819 11.207 19.3225 12.4718 19.3225 14.0176C19.3225 15.5634 19.1819 16.8281 18.9009 17.8821Z" fill="white"/>
<path d="M48.4466 9.48564C47.744 8.783 46.8657 8.25603 45.7766 7.93984C44.6876 7.58852 43.3877 7.448 41.9121 7.448H30.7754V12.507H41.5608C42.3337 12.507 42.8607 12.6826 43.212 12.9988C43.5282 13.315 43.7039 13.8771 43.7039 14.6149V14.8608H35.9398C33.7967 14.8608 32.1807 15.4229 31.0564 16.5471C29.9322 17.6713 29.3701 19.3225 29.3701 21.4304C29.3701 23.5383 29.9322 25.1544 31.0564 26.3137C32.1807 27.4731 33.8318 28.0001 35.9398 28.0001H50.5194V16.0201C50.5194 14.5095 50.3438 13.2447 50.0276 12.1556C49.6763 11.0666 49.1493 10.1883 48.4466 9.48564ZM43.7741 23.0114H37.872C37.3802 23.0114 36.9586 22.8708 36.6775 22.5898C36.3965 22.3087 36.2559 21.9223 36.2559 21.4304C36.2559 20.9035 36.3965 20.517 36.6775 20.2359C36.9586 19.9549 37.345 19.8144 37.872 19.8144H43.7741V23.0114Z" fill="white"/>
<path d="M63.2371 22.5194C62.956 22.2384 62.8155 21.7817 62.8155 21.079V12.5069H69.1392V7.44793H62.8155V1.93225H55.9648V7.4128H53.1191V12.4718H55.9648V21.4304C55.9648 22.6248 56.0702 23.6437 56.3161 24.4868C56.5621 25.33 56.9134 25.9975 57.4403 26.5245C57.9673 27.0514 58.6348 27.4379 59.478 27.6487C60.3212 27.8946 61.34 28 62.5344 28H69.2095V22.941H64.6775C63.9749 22.941 63.5181 22.8005 63.2371 22.5194Z" fill="white"/>
<path d="M90.6399 9.48564C89.9373 8.783 89.059 8.25603 87.9699 7.93984C86.8808 7.58852 85.5809 7.448 84.1054 7.448H72.9686V12.507H83.7541C84.527 12.507 85.0539 12.6826 85.4053 12.9988C85.7214 13.315 85.8971 13.8771 85.8971 14.6149V14.8608H78.133C75.99 14.8608 74.3739 15.4229 73.2497 16.5471C72.1255 17.6713 71.5634 19.3225 71.5634 21.4304C71.5634 23.5383 72.1255 25.1544 73.2497 26.3137C74.3739 27.4731 76.0251 28.0001 78.133 28.0001H92.7127V16.0201C92.7127 14.5095 92.537 13.2447 92.2208 12.1556C91.8695 11.0666 91.3425 10.1883 90.6399 9.48564ZM85.9322 23.0114H80.0301C79.5383 23.0114 79.1167 22.8708 78.8356 22.5898C78.5546 22.3087 78.414 21.9223 78.414 21.4304C78.414 20.9035 78.5546 20.517 78.8356 20.2359C79.1167 19.9549 79.5031 19.8144 80.0301 19.8144H85.9322V23.0114Z" fill="white"/>
<path d="M110.841 11.0314H105.606C104.763 11.0314 104.095 10.8206 103.674 10.3639C103.217 9.90715 103.006 9.27478 103.006 8.43162C103.006 7.58845 103.217 6.95608 103.674 6.49937C104.13 6.04266 104.763 5.83187 105.606 5.83187H118.148V0H104.095C101.285 0 99.1769 0.702635 97.7716 2.07277C96.3664 3.44291 95.6989 5.55081 95.6989 8.39648C95.6989 11.2422 96.4015 13.3501 97.7716 14.7553C99.1418 16.1606 101.25 16.8632 104.095 16.8632H109.435C111.192 16.8632 112.105 17.7415 112.105 19.5332C112.105 21.325 111.227 22.2033 109.435 22.2033H96.4718V28.0351H110.805C113.616 28.0351 115.724 27.3325 117.164 25.8921C118.605 24.4517 119.343 22.3438 119.343 19.5332C119.343 16.7227 118.605 14.6148 117.164 13.2095C115.724 11.8043 113.616 11.0314 110.841 11.0314Z" fill="white"/>
<path d="M131.744 22.5194C131.463 22.2384 131.322 21.7817 131.322 21.079V12.5069H137.646V7.44793H131.322V1.93225H124.472V7.4128H121.626V12.4718H124.472V21.4304C124.472 22.6248 124.577 23.6437 124.823 24.4868C125.069 25.33 125.42 25.9975 125.947 26.5245C126.474 27.0514 127.142 27.4379 127.985 27.6487C128.828 27.8946 129.847 28 131.041 28H137.716V22.941H133.184C132.517 22.941 132.025 22.8005 131.744 22.5194Z" fill="white"/>
<path d="M159.147 9.48564C158.444 8.783 157.566 8.25603 156.477 7.93984C155.388 7.58852 154.088 7.448 152.612 7.448H141.475V12.507H152.261C153.034 12.507 153.561 12.6826 153.912 12.9988C154.228 13.315 154.404 13.8771 154.404 14.6149V14.8608H146.64C144.497 14.8608 142.881 15.4229 141.757 16.5471C140.632 17.6713 140.07 19.3225 140.07 21.4304C140.07 23.5383 140.632 25.1544 141.757 26.3137C142.881 27.4731 144.532 28.0001 146.64 28.0001H161.219V16.0201C161.219 14.5095 161.044 13.2447 160.728 12.1556C160.376 11.0666 159.849 10.1883 159.147 9.48564ZM154.439 23.0114H148.537C148.045 23.0114 147.624 22.8708 147.342 22.5898C147.061 22.3087 146.921 21.9223 146.921 21.4304C146.921 20.9035 147.061 20.517 147.342 20.2359C147.624 19.9549 148.01 19.8144 148.537 19.8144H154.439V23.0114Z" fill="white"/>
<path d="M178.539 17.6362L186.128 7.448H178.82L174.64 13.3853L170.459 7.448H162.871L170.459 17.6362L162.449 28.0001H170.108L174.429 21.852L178.715 28.0001H186.549L178.539 17.6362Z" fill="white"/>
</svg>
